<?xml version="1.0" standalone="no"?>
<!DOCTYPE svg PUBLIC "-//W3C//DTD SVG 20010904//EN"
 "http://www.w3.org/TR/2001/REC-SVG-20010904/DTD/svg10.dtd">
<svg version="1.0" xmlns="http://www.w3.org/2000/svg"
 width="404.000000pt" height="428.000000pt" viewBox="0 0 404.000000 428.000000"
 preserveAspectRatio="xMidYMid meet">

<g transform="translate(0.000000,428.000000) scale(0.100000,-0.100000)"
fill="#000000" stroke="none">
<path d="M610 4150 c-58 -5 -120 -13 -138 -18 -81 -26 -148 -90 -191 -182
l-26 -55 -3 -1325 c-2 -862 1 -1352 7 -1402 17 -127 76 -214 181 -268 66 -34
208 -40 961 -40 585 0 703 -2 738 -15 44 -15 134 -88 431 -350 56 -49 114 -99
129 -110 15 -11 80 -67 145 -125 64 -57 127 -110 139 -117 12 -7 57 -12 99
-13 100 0 108 7 109 108 4 608 3 587 50 613 13 6 82 12 168 13 133 1 150 3
194 25 62 32 132 101 165 165 l27 51 3 1379 c3 1525 6 1440 -61 1528 -51 67
-120 114 -196 132 -59 14 -209 16 -1446 14 -759 0 -1427 -4 -1485 -8z m1768
-953 c8 -6 12 -22 9 -36 -6 -29 -43 -136 -57 -166 -6 -11 -16 -40 -24 -65 -8
-25 -27 -76 -41 -115 -27 -68 -95 -254 -141 -385 -12 -36 -35 -96 -49 -135
-14 -38 -35 -95 -45 -125 -37 -109 -58 -166 -78 -212 -19 -44 -24 -47 -67 -53
-75 -12 -233 -1 -250 16 -13 13 -13 20 4 64 10 28 24 66 31 85 13 37 45 126
79 220 11 30 32 87 46 125 14 39 35 95 45 125 17 51 32 91 96 260 14 36 31 85
38 110 7 25 20 59 29 77 10 18 17 40 17 50 0 10 9 35 20 56 11 20 20 43 20 51
0 27 40 65 73 68 61 6 232 -5 245 -15z m-818 -256 c8 -142 5 -146 -125 -210
-60 -29 -135 -64 -165 -78 -30 -13 -71 -32 -90 -42 -19 -10 -47 -21 -62 -25
-19 -4 -28 -13 -28 -26 0 -20 35 -50 60 -50 8 0 29 -7 45 -16 17 -9 71 -31
120 -50 50 -19 104 -41 120 -49 17 -9 43 -19 59 -23 51 -14 65 -45 68 -153 3
-107 -6 -129 -51 -129 -14 0 -37 9 -51 20 -14 11 -29 20 -33 20 -8 0 -113 43
-182 75 -16 8 -50 23 -75 33 -25 11 -128 57 -230 102 -285 126 -270 114 -270
204 0 49 4 67 19 80 10 10 196 107 413 216 277 140 402 198 423 197 l30 -2 5
-94z m1345 -101 c220 -110 408 -210 418 -221 26 -32 24 -132 -3 -157 -11 -11
-89 -49 -173 -86 -84 -37 -165 -74 -182 -81 -16 -8 -50 -23 -75 -33 -144 -63
-319 -142 -345 -156 -38 -20 -69 -20 -89 0 -13 13 -16 34 -13 112 2 54 9 107
16 119 7 13 28 27 53 33 23 7 51 18 62 25 12 7 39 18 61 25 22 7 45 16 50 20
6 4 28 13 50 20 22 7 49 18 60 25 11 6 38 18 60 25 50 16 65 28 65 51 0 12
-10 21 -27 25 -16 4 -48 17 -73 29 -25 12 -69 33 -98 46 -164 74 -258 125
-269 149 -15 30 -17 168 -3 204 6 18 17 26 32 26 13 0 203 -90 423 -200z"/>
</g>
</svg>
